#!OML:ASF X:\für Bonn\!DataBase\2005_08_11_Bastian_Final\c3d\Bastian.ASF
:FULLY-SPECIFIED
:DEGREES
271
root 1.15224 17.1526 3.90319 167.432 -16.4715 -172.972
lowerback 16.7806 -2.89414 4.12737
upperback 6.39544 -4.04173 2.24421
thorax -2.64093 -2.39263 0.8094
lowerneck -5.14532 -8.67059 1.16256
upperneck -12.1796 -12.1345 12.2152
head -2.30663 -6.96209 3.82046
rclavicle -2.28494e-014 2.27484e-014
rhumerus -49.8007 -2.51472 -73.5962
rradius 39.0044
rwrist -271.38
rhand 7.62683 -7.05764
rfingers 7.12502
rthumb 32.8721 -394.085
lclavicle -2.28494e-014 2.27484e-014
lhumerus 292.345 41.33 -332.163
lradius 22.2431
lwrist -216.185
lhand -33.8291 6.03985
lfingers 7.12502
lthumb -7.01457 35.9036
rfemur -21.1453 8.40998 28.7953
rtibia 35.0218
rfoot -8.09804 6.00168
rtoes -17.3148
lfemur 18.2625 -1.43413 -12.5736
ltibia 21.1946
lfoot -20.1485 -5.12899
ltoes -10.0464
272
root 1.18621 17.1625 4.03674 167.717 -15.8919 -173.286
lowerback 17.226 -2.79468 3.68135
upperback 6.39705 -3.97003 2.14044
thorax -2.85463 -2.36632 0.964889
lowerneck -5.38447 -8.5485 1.16116
upperneck -12.2576 -12.0125 12.3117
head -2.29202 -6.91963 3.8448
rclavicle -1.63066e-014 -7.55382e-015
rhumerus -49.7674 -2.72164 -73.4935
rradius 39.5844
rwrist -271.448
rhand 7.44412 -7.24542
rfingers 7.12502
rthumb 32.6983 -394.309
lclavicle -1.63066e-014 -7.55382e-015
lhumerus 293.573 40.5138 -330.223
lradius 22.2796
lwrist -217.156
lhand -34.0671 6.59088
lfingers 7.12502
lthumb -7.24435 36.4469
rfemur -21.5028 7.85895 28.4915
rtibia 34.6483
rfoot -8.95892 5.68939
rtoes -18.7264
lfemur 17.6185 -0.872554 -12.8382
ltibia 21.3505
lfoot -20.0981 -4.91008
ltoes -9.96361
273
root 1.22072 17.1727 4.16889 167.997 -15.3321 -173.638
lowerback 17.6469 -2.68791 3.18711
upperback 6.39702 -3.90239 2.03653
thorax -3.05476 -2.34123 1.14607
lowerneck -5.60736 -8.41699 1.15154
upperneck -12.3254 -11.8758 12.4184
head -2.27679 -6.86938 3.87512
rclavicle 2.87865e-014 2.73329e-015
rhumerus -49.6967 -3.03485 -73.3458
rradius 40.1502
rwrist -271.568
rhand 7.18477 -7.45471
rfingers 7.12502
rthumb 32.4516 -394.569
lclavicle 2.87865e-014 2.73329e-015
lhumerus 294.977 39.5577 -327.985
lradius 22.2802
lwrist -217.631
lhand -34.0289 7.2432
lfingers 7.12502
lthumb -7.20743 37.1005
rfemur -21.8477 7.04032 28.1914
rtibia 34.311
rfoot -9.9335 5.03529
rtoes -21.0319
lfemur 16.941 -0.387221 -13.1651
ltibia 21.5706
lfoot -20.0201 -4.70156
ltoes -9.50937
274
root 1.25468 17.1823 4.29925 168.232 -14.7405 -173.913
lowerback 18.0491 -2.57621 2.77327
upperback 6.41195 -3.82525 1.9508
thorax -3.2321 -2.31207 1.29731
lowerneck -5.85713 -8.27992 1.19979
upperneck -12.3819 -11.7384 12.4739
head -2.25993 -6.81841 3.87642
rclavicle 1.88721e-014 -1.41137e-014
rhumerus -49.628 -3.34174 -73.242
rradius 40.7956
rwrist -271.789
rhand 7.00753 -7.68006
rfingers 7.12502
rthumb 32.2829 -394.829
lclavicle 1.88721e-014 -1.41137e-014
lhumerus 296.44 38.5477 -325.691
lradius 22.2111
lwrist -217.68
lhand -33.7559 7.95522
lfingers 7.12502
lthumb -6.94398 37.8213
rfemur -22.16 6.14493 28.0075
rtibia 34.0298
rfoot -11.004 3.91819
rtoes -24.1238
lfemur 16.2743 0.160603 -13.3712
ltibia 21.829
lfoot -19.8978 -4.56516
ltoes -9.10284
275
root 1.28849 17.1908 4.42776 168.395 -14.1516 -174.074
lowerback 18.4589 -2.48088 2.46637
upperback 6.43066 -3.75806 1.9078
thorax -3.41202 -2.28899 1.43573
lowerneck -6.09383 -8.1508 1.1807
upperneck -12.4103 -11.605 12.5511
head -2.23035 -6.7644 3.89552
rclavicle 2.14439e-014 -6.95746e-016
rhumerus -49.565 -3.59834 -73.1495
rradius 41.5035
rwrist -272.175
rhand 6.83736 -7.88695
rfingers 7.12502
rthumb 32.1209 -395.069
lclavicle 2.14439e-014 -6.95746e-016
lhumerus 297.871 37.5482 -323.512
lradius 21.9947
lwrist -217.368
lhand -33.3119 8.6737
lfingers 7.12502
lthumb -6.51535 38.5535
rfemur -22.417 5.14588 27.9775
rtibia 33.82
rfoot -11.7165 2.47523
rtoes -25.864
lfemur 15.6305 0.669353 -13.4506
ltibia 22.1181
lfoot -19.7883 -4.46352
ltoes -8.5956
276
root 1.32046 17.2001 4.55327 168.559 -13.5723 -174.231
lowerback 18.8132 -2.38416 2.19551
upperback 6.45556 -3.68753 1.84914
thorax -3.55954 -2.263 1.53242
lowerneck -6.3444 -8.02016 1.18808
upperneck -12.4259 -11.4732 12.6273
head -2.1957 -6.71161 3.90852
rclavicle 4.00054e-014 -3.24019e-014
rhumerus -49.5214 -3.91287 -73.1081
rradius 42.2389
rwrist -272.629
rhand 6.6227 -8.14438
rfingers 7.12502
rthumb 31.9165 -395.367
lclavicle 4.00054e-014 -3.24019e-014
lhumerus 299.388 36.4568 -321.319
lradius 21.706
lwrist -216.623
lhand -32.8244 9.37136
lfingers 7.12502
lthumb -6.04466 39.2651
rfemur -22.6621 3.82087 28.0015
rtibia 33.7139
rfoot -11.9533 0.992621
rtoes -25.4564
lfemur 14.9884 1.17062 -13.5335
ltibia 22.4138
lfoot -19.6575 -4.33262
ltoes -8.38461
277
root 1.35132 17.211 4.67464 168.701 -12.9889 -174.37
lowerback 19.1195 -2.28753 1.95512
upperback 6.48298 -3.61525 1.80915
thorax -3.67987 -2.23613 1.62784
lowerneck -6.52122 -7.90041 1.11187
upperneck -12.4779 -11.3419 12.7246
head -2.18026 -6.65835 3.95006
rclavicle 1.10325e-014 4.77083e-015
rhumerus -49.4711 -4.20535 -73.0824
rradius 42.9715
rwrist -273.155
rhand 6.41278 -8.37012
rfingers 7.12502
rthumb 31.7166 -395.632
lclavicle 1.10325e-014 4.77083e-015
lhumerus 300.7 35.4693 -319.411
lradius 21.4609
lwrist -215.775
lhand -32.3722 10.0568
lfingers 7.12502
lthumb -5.60813 39.9626
rfemur -22.8663 2.29156 28.0996
rtibia 33.7409
rfoot -12.014 -0.555935
rtoes -24.0847
lfemur 14.3758 1.68104 -13.5863
ltibia 22.7018
lfoot -19.5021 -4.22898
ltoes -8.17454
